<?xml version="1.0" encoding="UTF-8"?>
<!DOCTYPE svg PUBLIC "-//W3C//DTD SVG 1.1//EN" "http://www.w3.org/Graphics/SVG/1.1/DTD/svg11.dtd">
<!-- Creator: CorelDRAW -->
<svg xmlns="http://www.w3.org/2000/svg" xml:space="preserve" width="10.8728in" height="10.8728in" style="shape-rendering:geometricPrecision; text-rendering:geometricPrecision; image-rendering:optimizeQuality; fill-rule:evenodd; clip-rule:evenodd"
viewBox="0 0 10.1728 10.1728"
 xmlns:xlink="http://www.w3.org/1999/xlink">
 <defs>
  <style type="text/css">
   <![CDATA[
    .fil0 {fill:none}
    .fil2 {fill:#242020}
    .fil3 {fill:#FF6600}
    .fil1 {fill:#242020;fill-rule:nonzero}
   ]]>
  </style>
 </defs>
 <g id="Layer_x0020_1">
  <metadata id="CorelCorpID_0Corel-Layer"/>
  <polygon class="fil0" points="-0,0 10.1728,0 10.1728,5.08639 10.1728,10.1728 -0,10.1728 -0,5.08639 "/>
  <g id="_582458496">
   <path id="_582453576" class="fil1" d="M3.02505 6.72959l0 -0.169339 -0.531289 0 0 0.169339 0.177096 0 0 0.785946 0.177096 0 0 -0.785946 0.177096 0zm0.78595 0.785946l0 -0.955285 -0.177096 0 0 0.385216 -0.341267 0 0 -0.385216 -0.177096 0 0 0.955285 0.177096 0 0 -0.400727 0.341267 0 0 0.400727 0.177096 0zm0.696753 0l0 -0.169339 -0.336096 0 0 -0.222341 0.321874 0 0 -0.169339 -0.321874 0 0 -0.224927 0.336096 0 0 -0.169339 -0.513196 0 0 0.955285 0.513196 0zm1.21641 0l0 -0.955285 -0.177096 0 0 0.385216 -0.341267 0 0 -0.385216 -0.177096 0 0 0.955285 0.177096 0 0 -0.400727 0.341267 0 0 0.400727 0.177096 0zm0.360654 0l0 -0.955285 -0.177096 0 0 0.955285 0.177096 0zm0.994069 -0.955285l-0.186147 0 -0.257239 0.726483 -0.257246 -0.726483 -0.186143 0 0.37229 0.955285 0.144777 0 0.369708 -0.955285zm0.608853 0.955285l0 -0.169339 -0.336096 0 0 -0.222341 0.321874 0 0 -0.169339 -0.321874 0 0 -0.224927 0.336096 0 0 -0.169339 -0.513192 0 0 0.955285 0.513192 0z"/>
   <g>
    <g>
     <path id="_582462312" class="fil2" d="M5.50672 4.87034c-0.196354,-0.0133822 -0.396837,-0.0267055 -0.602105,-0.0406182 -0.0658467,0.138372 -0.133321,0.280581 -0.202756,0.426379 0.238228,-0.0894691 0.468688,-0.198612 0.677842,-0.313685 0.0421285,-0.0231767 0.0845185,-0.0472117 0.127019,-0.0720755zm-0.662408 0.905115c0.0571388,0.0955543 0.11465,0.191569 0.17261,0.288018 0.221899,0 0.438251,0 0.650079,0 0.0756043,-0.209095 0.148103,-0.411608 0.218577,-0.60731l-0.0893623 -0.140254c-0.0525123,0.0307611 -0.10494,0.0604945 -0.15708,0.0891781 -0.24628,0.135509 -0.515885,0.263748 -0.794823,0.370367z"/>
     <path id="_582462864" class="fil3" d="M6.52517 5.42258c0.0540447,-0.180076 0.106609,-0.354462 0.157972,-0.523193l-0.0915834 -0.135631c-0.225133,0.186416 -0.468784,0.355294 -0.712445,0.502772l0.0859698 0.134095c0.190604,0.00746282 0.377174,0.0147709 0.560087,0.0219575zm-0.300351 -1.06011c-0.139554,-0.01413 -0.2812,-0.0284663 -0.42527,-0.0429941 -0.0657619,0.160207 -0.133528,0.326139 -0.203106,0.497191 0.216271,-0.13215 0.432468,-0.284991 0.628376,-0.454197z"/>
     <path id="_582463464" class="fil3" d="M4.53545 5.31486c0.0924528,-0.189182 0.181815,-0.372191 0.268459,-0.548845 -0.121343,-0.196284 -0.24109,-0.390365 -0.359269,-0.581864 -0.214094,-0.0212097 -0.433201,-0.0428394 -0.657045,-0.0648816 -0.110859,0.177428 -0.226353,0.361427 -0.345629,0.552444 0.122223,0.212827 0.246811,0.428471 0.3725,0.647239 0.21574,0.00779065 0.427167,0.0157139 0.634063,0.0235377 0.0290225,-0.00887729 0.0580081,-0.0180787 0.0869201,-0.0276301z"/>
     <path id="_582475248" class="fil2" d="M4.37124 3.0835c-0.199058,-0.0313284 -0.402539,-0.0632829 -0.609822,-0.0958563 -0.102697,0.144541 -0.20953,0.293853 -0.319446,0.448734 0.112764,0.188154 0.227233,0.379038 0.343153,0.571878 0.222102,0.0228268 0.439533,0.0455799 0.652275,0.0678726 0.0916313,-0.163213 0.180157,-0.321365 0.26598,-0.473793 -0.112016,-0.174931 -0.222717,-0.348097 -0.33214,-0.518835z"/>
     <path id="_582460440" class="fil2" d="M6.13875 3.36254c-0.16325,-0.0258804 -0.329723,-0.0522471 -0.499121,-0.0790705 -0.0639497,0.134662 -0.130073,0.27359 -0.197853,0.416813 0.112694,0.17086 0.226802,0.343374 0.342299,0.517867 0.178743,0.0190954 0.35406,0.0378519 0.525945,0.0562953 0.053529,-0.150037 0.105894,-0.295886 0.156922,-0.437264 -0.110775,-0.160049 -0.220242,-0.318046 -0.328191,-0.47464z"/>
     <path id="_582456312" class="fil3" d="M5.49853 4.75961c0.0727054,-0.171936 0.142283,-0.338313 0.210329,-0.499486 -0.115979,-0.176039 -0.230268,-0.350414 -0.343783,-0.522828 -0.185388,-0.0241676 -0.374423,-0.0487809 -0.56801,-0.0738546 -0.0839033,0.153758 -0.170801,0.31219 -0.26079,0.476007 0.117829,0.189495 0.237201,0.381547 0.358145,0.575838 0.205784,0.0151577 0.407044,0.0297113 0.604109,0.0443238z"/>
     <path id="_582455640" class="fil3" d="M5.23598 2.75535c-0.174349,-0.0319914 -0.351813,-0.0645648 -0.532987,-0.0981143 -0.0795052,0.12756 -0.161401,0.25848 -0.246111,0.393503 0.109069,0.169774 0.219398,0.341319 0.331027,0.514596 0.192405,0.025711 0.380294,0.0512562 0.56485,0.0763521 0.0693571,-0.142574 0.136438,-0.280847 0.202163,-0.414835 -0.107658,-0.158988 -0.213578,-0.315811 -0.318942,-0.471502z"/>
    </g>
    <path id="_582464184" class="fil3" d="M6.05207 2.8717c0.670843,-0.143407 1.19723,-0.0704842 1.36988,0.243345 0.289039,0.525363 -0.522394,1.52654 -1.81237,2.2363 -1.28998,0.709716 -2.57002,0.859208 -2.85905,0.333867 -0.169796,-0.308628 0.0403309,-0.781474 0.504039,-1.26299 -0.25985,0.329753 -0.360971,0.63922 -0.242858,0.853911 0.242391,0.440546 1.31579,0.315184 2.39755,-0.27997 1.08174,-0.595198 1.76219,-1.43477 1.51981,-1.87532 -0.120529,-0.219074 -0.44662,-0.298148 -0.876999,-0.249146z"/>
   </g>
  </g>
 </g>
</svg>
